<svg width="273" height="38" viewBox="0 0 273 38" xmlns="http://www.w3.org/2000/svg">
  <path
    d="M0.992 36V0.191998H1.04L19.232 26.016L17.264 25.632L35.408 0.191998H35.504V36H30.896V10.752L31.184 13.104L18.08 31.632H17.984L4.688 13.104L5.504 10.944V36H0.992ZM43.3164 18.672C43.3164 16.272 43.7644 14.016 44.6604 11.904C45.5884 9.76 46.8684 7.872 48.5004 6.24C50.1324 4.576 52.0044 3.28 54.1164 2.352C56.2604 1.392 58.5644 0.912 61.0284 0.912C63.4604 0.912 65.7324 1.392 67.8444 2.352C69.9884 3.28 71.8764 4.576 73.5084 6.24C75.1724 7.872 76.4684 9.76 77.3964 11.904C78.3244 14.016 78.7884 16.272 78.7884 18.672C78.7884 21.136 78.3244 23.44 77.3964 25.584C76.4684 27.728 75.1724 29.616 73.5084 31.248C71.8764 32.848 69.9884 34.112 67.8444 35.04C65.7324 35.936 63.4604 36.384 61.0284 36.384C58.5644 36.384 56.2604 35.936 54.1164 35.04C52.0044 34.144 50.1324 32.896 48.5004 31.296C46.8684 29.696 45.5884 27.824 44.6604 25.68C43.7644 23.536 43.3164 21.2 43.3164 18.672ZM48.1164 18.72C48.1164 20.544 48.4524 22.256 49.1244 23.856C49.7964 25.424 50.7244 26.816 51.9084 28.032C53.0924 29.248 54.4684 30.208 56.0364 30.912C57.6044 31.584 59.3004 31.92 61.1244 31.92C62.9164 31.92 64.5964 31.584 66.1644 30.912C67.7324 30.208 69.0924 29.248 70.2444 28.032C71.3964 26.816 72.3084 25.424 72.9804 23.856C73.6524 22.256 73.9884 20.528 73.9884 18.672C73.9884 16.848 73.6524 15.136 72.9804 13.536C72.3084 11.904 71.3804 10.48 70.1964 9.264C69.0124 8.048 67.6364 7.104 66.0684 6.432C64.5004 5.728 62.8204 5.376 61.0284 5.376C59.2044 5.376 57.5084 5.728 55.9404 6.432C54.3724 7.136 52.9964 8.096 51.8124 9.312C50.6284 10.528 49.7164 11.952 49.0764 13.584C48.4364 15.184 48.1164 16.896 48.1164 18.72ZM86.9724 1.296L98.3964 30L95.7564 29.472L106.604 1.296H112.028L96.7164 37.584L81.4524 1.296H86.9724ZM117.216 16.128H121.68V36H117.216V16.128ZM116.88 8.928C116.88 8.224 117.152 7.632 117.696 7.152C118.272 6.672 118.896 6.432 119.568 6.432C120.24 6.432 120.832 6.672 121.344 7.152C121.888 7.632 122.16 8.224 122.16 8.928C122.16 9.664 121.888 10.272 121.344 10.752C120.832 11.2 120.24 11.424 119.568 11.424C118.896 11.424 118.272 11.184 117.696 10.704C117.152 10.224 116.88 9.632 116.88 8.928ZM130.508 1.296H153.068V5.76H135.164V16.32H151.148V20.784H135.164V31.536H153.74V36H130.508V1.296ZM177.008 1.296H197.6V5.76H181.664V16.848H195.632V21.264H181.664V36H177.008V1.296ZM205.273 1.296H209.929V31.536H227.545V36H205.273V1.296ZM234.029 16.128H238.493V36H234.029V16.128ZM233.693 8.928C233.693 8.224 233.965 7.632 234.509 7.152C235.085 6.672 235.709 6.432 236.381 6.432C237.053 6.432 237.645 6.672 238.157 7.152C238.701 7.632 238.973 8.224 238.973 8.928C238.973 9.664 238.701 10.272 238.157 10.752C237.645 11.2 237.053 11.424 236.381 11.424C235.709 11.424 235.085 11.184 234.509 10.704C233.965 10.224 233.693 9.632 233.693 8.928ZM244.44 1.296H250.344L272.952 36H267L244.44 1.296ZM243.96 36L256.008 17.136L258.264 21.648L249.72 36H243.96ZM258.408 15.456L266.856 1.296H272.472L260.904 19.344L258.408 15.456Z" />
</svg>