<svg width="385" height="385" viewBox="0 0 385 385" fill="none" xmlns="http://www.w3.org/2000/svg">
<path id="Vector" d="M379.5 356.7L272.7 248.9C293.6 222.7 306.2 189.5 306.2 153.4C306.2 68.9 237.7 0.400002 153.1 0.400002C68.5 0.400002 0 69 0 153.5C0 238 68.5 306.5 153.1 306.5C189.7 306.5 223.2 293.7 249.6 272.3L355.7 379.4C358.9 382.8 363.3 384.5 367.6 384.5C371.7 384.5 375.8 383 378.9 380C385.5 373.7 385.7 363.3 379.5 356.7V356.7ZM153.1 273.6C121 273.6 90.8 261.1 68.1 238.4C45.4 215.7 32.9 185.5 32.9 153.5C32.9 121.4 45.4 91.2 68.1 68.6C90.8 45.9 121 33.4 153.1 33.4C185.2 33.4 215.4 45.9 238.1 68.6C260.8 91.3 273.3 121.5 273.3 153.5C273.3 185.6 260.8 215.8 238.1 238.4C215.4 261.1 185.2 273.6 153.1 273.6V273.6Z" fill="#D9D9D9"/>
</svg>
